<svg xmlns="http://www.w3.org/2000/svg" width="34" height="34" viewBox="0 0 34 34">
  <path id="Icon_awesome-telegram" data-name="Icon awesome-telegram" d="M17,.563a17,17,0,1,0,17,17A17,17,0,0,0,17,.563Zm8.349,11.646-2.79,13.148c-.206.932-.761,1.158-1.535.72l-4.25-3.133-2.05,1.974a1.073,1.073,0,0,1-.857.418l.3-4.325L22.045,13.9c.343-.3-.075-.473-.528-.171l-9.734,6.128-4.2-1.309c-.912-.288-.932-.912.192-1.35l16.39-6.32c.761-.274,1.426.185,1.179,1.337Z" transform="translate(0 -0.563)" fill="#fff"/>
</svg>
