<svg xmlns="http://www.w3.org/2000/svg" width="34" height="34" viewBox="0 0 34 34">
  <path id="Icon_simple-instagram" data-name="Icon simple-instagram" d="M17,0c-4.618,0-5.195.021-7.008.1a12.535,12.535,0,0,0-4.127.79A8.325,8.325,0,0,0,2.853,2.853,8.3,8.3,0,0,0,.892,5.865,12.5,12.5,0,0,0,.1,9.992C.017,11.805,0,12.382,0,17s.021,5.195.1,7.008a12.543,12.543,0,0,0,.79,4.127,8.337,8.337,0,0,0,1.961,3.012,8.313,8.313,0,0,0,3.012,1.961,12.551,12.551,0,0,0,4.127.791c1.813.085,2.39.1,7.008.1s5.195-.021,7.008-.1a12.58,12.58,0,0,0,4.127-.791,8.688,8.688,0,0,0,4.972-4.972,12.543,12.543,0,0,0,.791-4.127c.085-1.813.1-2.39.1-7.008s-.021-5.195-.1-7.008a12.572,12.572,0,0,0-.791-4.127,8.344,8.344,0,0,0-1.961-3.012A8.283,8.283,0,0,0,28.135.892,12.507,12.507,0,0,0,24.008.1C22.195.017,21.618,0,17,0Zm0,3.06c4.538,0,5.079.023,6.871.1a9.366,9.366,0,0,1,3.155.588,5.594,5.594,0,0,1,3.227,3.226,9.386,9.386,0,0,1,.585,3.155c.081,1.794.1,2.332.1,6.871s-.021,5.079-.1,6.871a9.567,9.567,0,0,1-.6,3.155,5.4,5.4,0,0,1-1.274,1.958,5.3,5.3,0,0,1-1.955,1.269,9.455,9.455,0,0,1-3.166.585c-1.8.081-2.336.1-6.884.1s-5.08-.021-6.884-.1a9.639,9.639,0,0,1-3.168-.6,5.265,5.265,0,0,1-1.954-1.274,5.162,5.162,0,0,1-1.275-1.955,9.648,9.648,0,0,1-.6-3.166C3.019,22.056,3,21.5,3,16.979s.023-5.08.086-6.886a9.637,9.637,0,0,1,.6-3.165A5.039,5.039,0,0,1,4.953,4.971,5.028,5.028,0,0,1,6.906,3.7a9.409,9.409,0,0,1,3.146-.6c1.806-.064,2.337-.085,6.884-.085L17,3.06Zm0,5.21A8.729,8.729,0,1,0,25.729,17,8.729,8.729,0,0,0,17,8.27Zm0,14.4A5.667,5.667,0,1,1,22.667,17,5.665,5.665,0,0,1,17,22.667ZM28.115,7.926a2.04,2.04,0,1,1-2.04-2.039A2.041,2.041,0,0,1,28.115,7.926Z" fill="#fff"/>
</svg>
